<svg width="17" height="17" viewBox="0 0 17 17" fill="none" xmlns="http://www.w3.org/2000/svg">
<path d="M8.5 1.83334H6.278C5.6886 1.83334 5.12334 2.06748 4.70657 2.48425C4.2898 2.90102 4.05566 3.46628 4.05566 4.05568C4.05566 4.64508 4.2898 5.21034 4.70657 5.6271C5.12334 6.04387 5.6886 6.27801 6.278 6.27801H8.5V1.83334Z" stroke="#F7F3F3"/>
<path d="M8.5 6.27734H6.278C5.6886 6.27734 5.12334 6.51148 4.70657 6.92825C4.2898 7.34502 4.05566 7.91028 4.05566 8.49968C4.05566 9.08908 4.2898 9.65434 4.70657 10.0711C5.12334 10.4879 5.6886 10.722 6.278 10.722H8.5V6.27734Z" stroke="#F7F3F3"/>
<path d="M12.9447 8.50001C12.9447 9.08941 12.7106 9.65467 12.2938 10.0714C11.877 10.4882 11.3118 10.7223 10.7224 10.7223C10.133 10.7223 9.56771 10.4882 9.15094 10.0714C8.73417 9.65467 8.50003 9.08941 8.50003 8.50001C8.50003 7.91061 8.73417 7.34535 9.15094 6.92859C9.56771 6.51182 10.133 6.27768 10.7224 6.27768C11.3118 6.27768 11.877 6.51182 12.2938 6.92859C12.7106 7.34535 12.9447 7.91061 12.9447 8.50001ZM6.27803 10.7227H8.50003V12.9447C8.4999 13.3841 8.36947 13.8137 8.12523 14.179C7.881 14.5443 7.53392 14.829 7.12789 14.9971C6.72186 15.1651 6.27511 15.209 5.84413 15.1232C5.41315 15.0374 5.01729 14.8257 4.7066 14.515C4.39592 14.2042 4.18436 13.8083 4.09868 13.3773C4.013 12.9463 4.05704 12.4995 4.22523 12.0935C4.39343 11.6876 4.67823 11.3406 5.04362 11.0964C5.40901 10.8523 5.83859 10.7227 6.27803 10.7227Z" stroke="#F7F3F3"/>
<path d="M8.5 1.83334H10.722C11.3114 1.83334 11.8767 2.06748 12.2934 2.48425C12.7102 2.90102 12.9443 3.46628 12.9443 4.05568C12.9443 4.64508 12.7102 5.21034 12.2934 5.6271C11.8767 6.04387 11.3114 6.27801 10.722 6.27801H8.5V1.83334Z" stroke="#F7F3F3"/>
</svg>
