<svg width="21" height="20" viewBox="0 0 21 20" fill="none" xmlns="http://www.w3.org/2000/svg">
<path d="M10.5 0C4.975 0 0.5 4.59118 0.5 10.2539C0.5 14.7853 3.365 18.6279 7.3375 19.9823C7.8375 20.0788 8.02083 19.7618 8.02083 19.4892C8.02083 19.2457 8.0125 18.6006 8.00833 17.7461C5.22667 18.3647 4.64 16.3703 4.64 16.3703C4.185 15.1869 3.5275 14.8707 3.5275 14.8707C2.62167 14.235 3.5975 14.2478 3.5975 14.2478C4.60167 14.3196 5.12917 15.3039 5.12917 15.3039C6.02083 16.8719 7.47 16.4191 8.04167 16.1567C8.13167 15.4936 8.38917 15.0416 8.675 14.7853C6.45417 14.5289 4.12 13.6471 4.12 9.71813C4.12 8.59875 4.5075 7.68444 5.14917 6.96667C5.03667 6.70776 4.69917 5.66528 5.23667 4.2528C5.23667 4.2528 6.07417 3.97766 7.98667 5.30383C8.78667 5.07568 9.63667 4.96289 10.4867 4.95776C11.3367 4.96289 12.1867 5.07568 12.9867 5.30383C14.8867 3.97766 15.7242 4.2528 15.7242 4.2528C16.2617 5.66528 15.9242 6.70776 15.8242 6.96667C16.4617 7.68444 16.8492 8.59875 16.8492 9.71813C16.8492 13.6573 14.5117 14.5246 12.2867 14.7767C12.6367 15.0843 12.9617 15.7132 12.9617 16.6737C12.9617 18.046 12.9492 19.1483 12.9492 19.4816C12.9492 19.7507 13.1242 20.0711 13.6367 19.9686C17.6375 18.6236 20.5 14.7784 20.5 10.2539C20.5 4.59118 16.0225 0 10.5 0Z" fill="#F7F3F3"/>
</svg>
