<svg width="17" height="17" viewBox="0 0 17 17" fill="none" xmlns="http://www.w3.org/2000/svg">
<path d="M8.50006 9.18667C9.15728 9.18667 9.69006 8.65389 9.69006 7.99667C9.69006 7.33945 9.15728 6.80667 8.50006 6.80667C7.84284 6.80667 7.31006 7.33945 7.31006 7.99667C7.31006 8.65389 7.84284 9.18667 8.50006 9.18667Z" fill="#F7F3F3"/>
<path d="M5.16799 10.3627L4.90466 10.2953C2.94866 9.80134 1.82666 8.96134 1.82666 7.994C1.82666 7.026 2.94933 6.18667 4.90466 5.69267L5.16799 5.626L5.24199 5.88667C5.43969 6.56913 5.69298 7.23425 5.99933 7.87534L6.05599 7.994L5.99933 8.11267C5.69266 8.75467 5.43866 9.42 5.24199 10.1027L5.16799 10.3627ZM4.78333 6.29934C3.29733 6.718 2.38466 7.35667 2.38466 7.994C2.38466 8.63 3.29666 9.26934 4.78333 9.68734C4.96533 9.10867 5.18533 8.54267 5.43999 7.994C5.18348 7.44442 4.9641 6.87826 4.78333 6.29934ZM11.8313 10.3627L11.758 10.1013C11.5598 9.41874 11.3063 8.75343 11 8.112L10.9433 7.994L11 7.87467C11.3067 7.234 11.5593 6.568 11.758 5.88534L11.8313 5.62534L12.0947 5.692C14.0513 6.186 15.1727 7.02534 15.1727 7.994C15.1727 8.962 14.0507 9.80134 12.0947 10.2953L11.8313 10.3627ZM11.558 7.994C11.8247 8.57134 12.0467 9.13934 12.216 9.68734C13.7027 9.26934 14.6153 8.63 14.6153 7.994C14.6153 7.35667 13.7033 6.71867 12.216 6.29934C12.0342 6.87808 11.8144 7.4442 11.558 7.994Z" fill="#F7F3F3"/>
<path d="M4.77927 6.29666L4.70593 6.03666C4.15527 4.09799 4.32193 2.70932 5.16393 2.22532C5.98727 1.74866 7.31193 2.31199 8.69927 3.73532L8.8886 3.92999L8.69927 4.12399C8.20652 4.63645 7.75615 5.18803 7.3526 5.77332L7.27727 5.88132L7.1466 5.89199C6.43699 5.94772 5.7331 6.06121 5.04193 6.23132L4.77927 6.29666ZM5.83393 2.61066C5.6846 2.61066 5.5526 2.64332 5.44127 2.70732C4.88927 3.02532 4.79193 4.13266 5.17193 5.62732C5.76593 5.49599 6.36527 5.40199 6.96927 5.34932C7.31894 4.85336 7.70041 4.38059 8.11127 3.93399C7.2426 3.08932 6.4226 2.61066 5.83393 2.61066ZM11.1653 13.9333C10.3733 13.9333 9.35593 13.336 8.29993 12.252L8.11127 12.058L8.29993 11.8647C8.79276 11.3514 9.24334 10.7991 9.64727 10.2133L9.72193 10.1067L9.85127 10.094C10.5611 10.0392 11.2653 9.9262 11.9566 9.75599L12.2199 9.68932L12.2939 9.94999C12.8419 11.8873 12.6759 13.278 11.8353 13.762C11.6312 13.8777 11.3999 13.9368 11.1653 13.9333ZM8.8886 12.0533C9.7566 12.898 10.5773 13.3773 11.1653 13.3773C11.3153 13.3773 11.4473 13.344 11.5579 13.2807C12.1106 12.962 12.2086 11.8527 11.8273 10.358C11.2339 10.49 10.6339 10.5847 10.0286 10.6373C9.68041 11.1341 9.29957 11.6071 8.8886 12.0533Z" fill="#F7F3F3"/>
<path d="M12.2201 6.29666L11.9568 6.23066C11.2655 6.06002 10.5613 5.94653 9.85142 5.89133L9.72209 5.88L9.64742 5.772C9.24405 5.18639 8.79344 4.63477 8.30009 4.12266L8.11142 3.92866L8.30009 3.73533C9.68675 2.31266 11.0108 1.74933 11.8354 2.22533C12.6768 2.71 12.8441 4.09866 12.2941 6.03666L12.2201 6.29666ZM10.0288 5.34933C10.6648 5.406 11.2674 5.50133 11.8274 5.62733C12.2081 4.13266 12.1108 3.02533 11.5581 2.70666C11.0088 2.38866 9.97475 2.87533 8.88875 3.934C9.29942 4.38066 9.68075 4.85266 10.0288 5.34933ZM5.83409 13.9333C5.59951 13.9367 5.36826 13.8775 5.16409 13.762C4.32209 13.278 4.15542 11.888 4.70542 9.95L4.77742 9.68933L5.04075 9.756C5.68342 9.918 6.39142 10.032 7.14609 10.094L7.27542 10.1067L7.35075 10.2133C7.75342 10.7987 8.20409 11.3513 8.69742 11.8647L8.88675 12.058L8.69742 12.252C7.64209 13.3367 6.62475 13.9333 5.83409 13.9333ZM5.17209 10.3587C4.79209 11.8533 4.88942 12.9627 5.44142 13.2813C5.99142 13.5947 7.02209 13.1113 8.11142 12.0533C7.70072 11.6066 7.31926 11.1338 6.96942 10.638C6.36482 10.5845 5.7644 10.4912 5.17209 10.3587Z" fill="#F7F3F3"/>
<path d="M8.49994 10.7087C8.04194 10.7087 7.57194 10.6893 7.09994 10.65L6.96928 10.6387L6.89394 10.5307C6.62778 10.1479 6.37735 9.7545 6.14327 9.35134C5.91093 8.94709 5.69498 8.53365 5.49594 8.11201L5.43994 7.99401L5.49594 7.87467C5.69527 7.45334 5.91061 7.04001 6.14327 6.63601C6.37461 6.23867 6.62727 5.84134 6.89394 5.45601L6.96928 5.34934L7.09994 5.33734C8.0312 5.25934 8.96735 5.25934 9.89861 5.33734L10.0279 5.35001L10.1033 5.45667C10.6365 6.22251 11.1048 7.03154 11.5033 7.87534L11.5586 7.99467L11.5033 8.11267C11.1059 8.95705 10.6375 9.76617 10.1033 10.5313L10.0279 10.6393L9.89861 10.6507C9.42794 10.6887 8.95727 10.7087 8.49994 10.7087ZM7.27728 10.106C8.10061 10.168 8.89928 10.168 9.72194 10.106C10.1812 9.43348 10.5895 8.72751 10.9433 7.99401C10.5907 7.25985 10.1824 6.55378 9.72194 5.88201C8.90826 5.81934 8.09096 5.81934 7.27728 5.88201C6.81643 6.55354 6.40811 7.25963 6.05594 7.99401C6.41053 8.7271 6.81875 9.43302 7.27728 10.106Z" fill="#F7F3F3"/>
</svg>
