<svg width="17" height="17" viewBox="0 0 17 17" fill="none" xmlns="http://www.w3.org/2000/svg">
<g clip-path="url(#clip0_602_1181)">
<path d="M16.1846 15.8479L15.8576 15.5308C15.5478 15.1193 15.1491 14.7578 14.7308 14.4576C14.3971 14.2181 13.6481 13.8946 13.5089 13.5065L13.4833 13.4821C13.7199 13.4554 13.9961 13.3699 14.2145 13.3113C14.5813 13.213 14.884 13.2384 15.2628 13.1406C15.4335 13.0919 15.6251 13.043 15.7501 12.9943V12.8968C15.6251 12.7004 15.4468 12.4404 15.238 12.2626C14.6919 11.7976 14.1079 11.333 13.4941 10.9455C13.1538 10.7308 12.739 10.5911 12.3784 10.409C12.257 10.3476 12.0469 10.3158 11.9666 10.2138C11.777 9.97226 11.6756 9.66601 11.5294 9.38463C11.2233 8.79501 10.9233 8.15113 10.652 7.53076C10.467 7.10776 10.3466 6.69076 10.1159 6.31126C9.00839 4.49038 7.81651 3.39151 5.97001 2.31126C5.57689 2.08151 5.10389 1.99088 4.60389 1.87213C4.33589 1.85601 4.06751 1.83963 3.79926 1.82326C3.63539 1.75501 3.46501 1.55463 3.31151 1.45738C2.69951 1.07088 1.13039 0.230255 0.677262 1.33551C0.391137 2.03313 1.10476 2.71363 1.36001 3.06726C1.53939 3.31501 1.76876 3.59313 1.89664 3.87201C1.98101 4.05538 1.99539 4.23926 2.06751 4.43313C2.24476 4.91088 2.39889 5.43063 2.62839 5.87201C2.74426 6.09551 2.87201 6.33076 3.01864 6.53051C3.10839 6.65313 3.26239 6.70713 3.28676 6.89638C3.13626 7.10713 3.12764 7.43438 3.04301 7.70138C2.66176 8.90326 2.80576 10.3973 3.36014 11.2868C3.53014 11.56 3.93089 12.1456 4.48201 11.9209C4.96401 11.7246 4.88526 11.1161 5.02314 10.5794C5.05426 10.4579 5.00001 10.3684 5.12501 10.2868V10.3111C5.25291 10.6079 5.38972 10.9007 5.53526 11.1891C5.86026 11.7125 6.39639 12.2594 6.88501 12.6284C7.13839 12.8198 7.37501 13.1505 7.62501 13.2625V13.2499H7.65264C7.58926 13.1249 7.48989 13.104 7.40889 13.0244C7.21801 12.8374 7.00564 12.6016 6.84801 12.3873C6.40351 11.7839 6.01076 11.122 5.65289 10.4345C5.48189 10.1063 5.33326 9.74338 5.18926 9.40938C5.13389 9.28063 5.13451 9.08538 5.01876 9.01876C4.86089 9.26351 4.62851 9.46126 4.50639 9.75038C4.31126 10.2124 4.28614 10.7759 4.21376 11.36C4.17089 11.3753 4.19001 11.3648 4.16489 11.3843C3.82514 11.3024 3.70589 10.9528 3.57951 10.6526C3.26014 9.89388 3.20089 8.67226 3.48189 7.79901C3.55464 7.57288 3.88326 6.86138 3.75014 6.65251C3.68664 6.44438 3.47714 6.32376 3.36001 6.16463C3.21489 5.96788 3.07014 5.70888 2.96964 5.48163C2.70826 4.89026 2.58639 4.22613 2.31114 3.62813C2.17951 3.34226 1.95714 3.05288 1.77451 2.79888C1.57239 2.51726 1.34589 2.30988 1.18901 1.96951C1.13339 1.84851 1.05764 1.65476 1.14026 1.53038C1.16651 1.44651 1.20364 1.41151 1.28664 1.38413C1.42826 1.27501 1.82201 1.42038 1.96951 1.48151C2.36064 1.64401 2.68714 1.79401 3.01851 2.01351C3.17739 2.11901 3.33839 2.24976 3.53064 2.37476H3.75014C4.09351 2.37476 4.47814 2.40376 4.79901 2.50126C5.36589 2.67363 5.87401 2.94401 6.33551 3.23538C7.74126 4.12313 8.89064 5.38788 9.67701 6.89513C9.80351 7.13788 9.85826 7.37001 9.96964 7.62738C10.1944 8.14651 10.4776 8.68088 10.7013 9.18851C10.9245 9.69513 11.142 10.2063 11.4575 10.6278C11.6234 10.8493 12.2639 10.9683 12.555 11.0914C12.7591 11.1775 13.0935 11.2675 13.2868 11.3839C13.6559 11.6066 14.0135 11.8719 14.36 12.1158C14.533 12.2375 15.065 12.505 15.0916 12.7255C14.2338 12.702 13.5786 12.782 13.0185 13.0181C12.8594 13.0853 12.6054 13.0871 12.5794 13.2865C12.6669 13.3781 12.6805 13.5151 12.75 13.6279C12.8836 13.8441 13.1095 14.1344 13.311 14.2864C13.5313 14.4526 13.758 14.6303 13.994 14.7741C14.4139 15.03 14.8824 15.1763 15.2866 15.4326C15.5249 15.5839 15.7814 15.7743 16.0135 15.9448C16.1285 16.0291 16.1249 16.1603 16.3749 16.2131V16.1889C16.25 16.0895 16.2566 15.9523 16.1846 15.8479ZM4.18926 3.43313C4.01039 3.42976 3.87501 3.45276 3.75001 3.48176V3.50001H3.77476C3.86014 3.62501 4.01076 3.79126 4.11614 3.94226L4.36014 4.45576L4.38426 4.43238C4.53539 4.32576 4.60464 4.15601 4.60376 3.89601C4.54339 3.83238 4.53426 3.75276 4.48201 3.67676C4.41226 3.57563 4.27714 3.51826 4.18926 3.43313Z" fill="#F7F3F3"/>
</g>
<defs>
<clipPath id="clip0_602_1181">
<rect width="16" height="16" fill="white" transform="translate(0.5 0.5)"/>
</clipPath>
</defs>
</svg>
