<?xml version="1.0" encoding="UTF-8"?>
<svg id="Capa_1" data-name="Capa 1" xmlns="http://www.w3.org/2000/svg" viewBox="0 0 31.76 27.32">
  <defs>
    <style>
      .cls-1 {
        fill: #172135;
      }
    </style>
  </defs>
  <path class="cls-1" d="m24.18,24.17c-1.61-.12-3.07-.19-4.31-.2-2.47-.03-4.03.14-4.1.52-.07.38,1.36.9,3.73,1.44,1.19.27,2.61.54,4.2.8.8.12,1.63.24,2.5.37.44.06.89.12,1.34.18.28.03.52.07,1,.04.46-.03.92-.16,1.33-.39l.03-.02c.4-.24.73-.57.98-.94.12-.18.23-.41.3-.58.06-.16.11-.31.15-.46.15-.59.18-.97.25-1.42.12-.87.17-1.71.18-2.51.02-1.59-.15-3.02-.41-4.18-.52-2.33-1.32-3.6-1.7-3.49-.42.12-.36,1.55-.4,3.78-.02,1.11-.07,2.43-.24,3.88-.02.23-.06.47-.09.7-.8-1-1.92-2.27-3.46-3.87-1.82-1.86-4.19-4.08-6.81-6.26-2.62-2.18-5.49-4.31-8.2-6.1C5.04,1.87.28-.34.02.04c-.3.43,3.9,3.35,8.78,7.37,4.92,3.98,10.41,9.16,13.91,12.81,1.83,1.89,3.12,3.23,4.07,4.17-.02,0-.04,0-.06,0-.88-.07-1.72-.14-2.53-.21"/>
</svg>